<?xml version="1.0" standalone="no"?>
<!DOCTYPE svg PUBLIC "-//W3C//DTD SVG 20010904//EN"
 "http://www.w3.org/TR/2001/REC-SVG-20010904/DTD/svg10.dtd">
<svg version="1.0" xmlns="http://www.w3.org/2000/svg"
 width="512.000000pt" height="512.000000pt" viewBox="0 0 512.000000 512.000000"
 preserveAspectRatio="xMidYMid meet">

<g transform="translate(0.000000,512.000000) scale(0.100000,-0.100000)"
fill="#000000" stroke="none">
<path d="M1828 3743 l-3 -448 -447 -3 -448 -2 0 -95 0 -95 448 -2 447 -3 0
-535 0 -535 -447 -3 -448 -2 0 -95 0 -95 448 -2 447 -3 3 -447 2 -448 95 0 95
0 0 444 c0 312 3 447 11 452 6 3 247 3 535 -1 l524 -7 0 -444 0 -444 105 0
105 0 0 445 0 445 445 0 445 0 0 105 0 105 -445 0 -445 0 0 530 0 530 445 0
445 0 0 105 0 105 -445 0 -445 0 0 445 0 445 -105 0 -105 0 0 -444 0 -444
-524 -7 c-288 -4 -529 -4 -535 -1 -8 5 -11 140 -11 452 l0 444 -95 0 -95 0 -2
-447z m865 -650 l397 -6 0 -527 0 -528 -524 -7 c-288 -4 -529 -4 -535 -1 -12
8 -16 1057 -4 1069 8 9 163 9 666 0z"/>
<path d="M2472 2955 c-208 -46 -342 -253 -298 -464 18 -87 48 -141 112 -205
60 -59 129 -92 221 -107 128 -21 239 16 333 111 213 212 128 563 -158 659 -70
24 -120 25 -210 6z"/>
<path d="M2242 4108 l-72 -73 122 -122 123 -123 -123 -123 -122 -122 72 -73
73 -72 122 122 123 123 125 -125 125 -125 72 73 73 72 -125 125 -125 125 125
125 125 125 -73 72 -72 73 -125 -125 -125 -125 -123 123 -122 122 -73 -72z"/>
<path d="M3492 2877 l-72 -72 125 -125 125 -125 -125 -125 -125 -125 70 -70
70 -70 125 125 125 125 125 -125 125 -125 72 73 73 72 -125 125 -125 125 125
125 125 125 -70 70 -70 70 -125 -125 -125 -125 -125 125 -125 125 -73 -73z"/>
</g>
</svg>
