<?xml version="1.0" encoding="UTF-8"?>
<!DOCTYPE svg PUBLIC "-//W3C//DTD SVG 1.1//EN" "http://www.w3.org/Graphics/SVG/1.1/DTD/svg11.dtd">
<svg xmlns="http://www.w3.org/2000/svg" version="1.1" width="512px" height="512px" style="shape-rendering:geometricPrecision; text-rendering:geometricPrecision; image-rendering:optimizeQuality; fill-rule:evenodd; clip-rule:evenodd" xmlns:xlink="http://www.w3.org/1999/xlink">
<g><path style="opacity:0.995" fill="#feea4f" d="M 232.5,-0.5 C 247.833,-0.5 263.167,-0.5 278.5,-0.5C 368.144,10.3879 435.644,54.7213 481,132.5C 497.695,163.971 507.861,197.304 511.5,232.5C 511.5,247.833 511.5,263.167 511.5,278.5C 511.167,278.5 510.833,278.5 510.5,278.5C 510.66,276.801 510.494,275.134 510,273.5C 479.632,242.965 449.132,212.632 418.5,182.5C 418.5,181.833 418.167,181.5 417.5,181.5C 388.5,151.833 359.167,122.5 329.5,93.5C 322.687,92.5088 315.687,92.1755 308.5,92.5C 308.5,101.5 308.5,110.5 308.5,119.5C 303.539,115.874 298.872,111.874 294.5,107.5C 290.188,102.521 285.521,97.8544 280.5,93.5C 272.146,101.188 264.146,109.188 256.5,117.5C 247.573,109.912 238.907,101.912 230.5,93.5C 226.42,98.5839 221.754,102.917 216.5,106.5C 211.833,102.167 207.167,97.8333 202.5,93.5C 202.5,92.8333 202.167,92.5 201.5,92.5C 195.167,92.5 188.833,92.5 182.5,92.5C 181.502,121.995 181.169,151.662 181.5,181.5C 151.662,181.169 121.995,181.502 92.5,182.5C 92.5,188.833 92.5,195.167 92.5,201.5C 92.5,202.167 92.8333,202.5 93.5,202.5C 122.5,232.167 151.833,261.5 181.5,290.5C 181.5,296.5 181.5,302.5 181.5,308.5C 151.662,308.169 121.995,308.502 92.5,309.5C 92.5,315.833 92.5,322.167 92.5,328.5C 92.5,329.167 92.8333,329.5 93.5,329.5C 122.5,359.167 151.833,388.5 181.5,417.5C 181.5,418.167 181.833,418.5 182.5,418.5C 212.632,449.132 242.965,479.632 273.5,510C 275.134,510.494 276.801,510.66 278.5,510.5C 278.5,510.833 278.5,511.167 278.5,511.5C 263.167,511.5 247.833,511.5 232.5,511.5C 142.856,500.612 75.3562,456.279 30,378.5C 13.3053,347.029 3.1386,313.696 -0.5,278.5C -0.5,263.167 -0.5,247.833 -0.5,232.5C 10.3875,142.857 54.7208,75.3573 132.5,30C 163.971,13.3053 197.304,3.1386 232.5,-0.5 Z"/></g>
<g><path style="opacity:1" fill="#0c66a8" d="M 182.5,92.5 C 188.833,92.5 195.167,92.5 201.5,92.5C 201.5,122.5 201.5,152.5 201.5,182.5C 219.5,182.5 237.5,182.5 255.5,182.5C 255.5,188.833 255.5,195.167 255.5,201.5C 273.341,201.17 291.008,201.503 308.5,202.5C 273.167,202.5 237.833,202.5 202.5,202.5C 202.5,237.833 202.5,273.167 202.5,308.5C 237.833,308.5 273.167,308.5 308.5,308.5C 291.008,309.497 273.341,309.83 255.5,309.5C 255.5,315.833 255.5,322.167 255.5,328.5C 237.5,328.5 219.5,328.5 201.5,328.5C 201.5,358.5 201.5,388.5 201.5,418.5C 195.167,418.5 188.833,418.5 182.5,418.5C 182.5,388.5 182.5,358.5 182.5,328.5C 152.5,328.5 122.5,328.5 92.5,328.5C 92.5,322.167 92.5,315.833 92.5,309.5C 122.5,309.5 152.5,309.5 182.5,309.5C 182.5,273.5 182.5,237.5 182.5,201.5C 152.5,201.5 122.5,201.5 92.5,201.5C 92.5,195.167 92.5,188.833 92.5,182.5C 122.5,182.5 152.5,182.5 182.5,182.5C 182.5,152.5 182.5,122.5 182.5,92.5 Z"/></g>
<g><path style="opacity:1" fill="#223064" d="M 329.5,93.5 C 329.5,122.833 329.5,152.167 329.5,181.5C 358.833,181.5 388.167,181.5 417.5,181.5C 418.167,181.5 418.5,181.833 418.5,182.5C 418.5,189.167 418.5,195.833 418.5,202.5C 388.833,202.5 359.167,202.5 329.5,202.5C 329.5,237.833 329.5,273.167 329.5,308.5C 359.167,308.5 388.833,308.5 418.5,308.5C 418.5,315.5 418.5,322.5 418.5,329.5C 388.833,329.5 359.167,329.5 329.5,329.5C 329.5,359.167 329.5,388.833 329.5,418.5C 322.5,418.5 315.5,418.5 308.5,418.5C 308.5,388.833 308.5,359.167 308.5,329.5C 291.008,328.503 273.341,328.17 255.5,328.5C 255.5,322.167 255.5,315.833 255.5,309.5C 273.341,309.83 291.008,309.497 308.5,308.5C 308.5,273.167 308.5,237.833 308.5,202.5C 291.008,201.503 273.341,201.17 255.5,201.5C 255.5,195.167 255.5,188.833 255.5,182.5C 273.341,182.83 291.008,182.497 308.5,181.5C 308.5,160.833 308.5,140.167 308.5,119.5C 308.5,110.5 308.5,101.5 308.5,92.5C 315.687,92.1755 322.687,92.5088 329.5,93.5 Z"/></g>
<g><path style="opacity:1" fill="#f6d039" d="M 202.5,93.5 C 207.167,97.8333 211.833,102.167 216.5,106.5C 224.088,115.427 232.088,124.093 240.5,132.5C 232.637,140.528 224.971,148.694 217.5,157C 221.655,162.489 226.322,167.155 231.5,171C 239.421,162.574 247.755,154.741 256.5,147.5C 264.146,155.812 272.146,163.812 280.5,171.5C 286.046,167.138 290.546,162.138 294,156.5C 285.985,148.652 278.152,140.652 270.5,132.5C 278.521,124.146 286.521,115.813 294.5,107.5C 298.872,111.874 303.539,115.874 308.5,119.5C 308.5,140.167 308.5,160.833 308.5,181.5C 273.167,181.5 237.833,181.5 202.5,181.5C 202.5,152.167 202.5,122.833 202.5,93.5 Z"/></g>
<g><path style="opacity:1" fill="#373633" d="M 256.5,117.5 C 255.167,127.5 255.167,137.5 256.5,147.5C 247.755,154.741 239.421,162.574 231.5,171C 226.322,167.155 221.655,162.489 217.5,157C 224.971,148.694 232.637,140.528 240.5,132.5C 232.088,124.093 224.088,115.427 216.5,106.5C 221.754,102.917 226.42,98.5839 230.5,93.5C 238.907,101.912 247.573,109.912 256.5,117.5 Z"/></g>
<g><path style="opacity:1" fill="#1c1c1a" d="M 294.5,107.5 C 286.521,115.813 278.521,124.146 270.5,132.5C 278.152,140.652 285.985,148.652 294,156.5C 290.546,162.138 286.046,167.138 280.5,171.5C 272.146,163.812 264.146,155.812 256.5,147.5C 255.167,137.5 255.167,127.5 256.5,117.5C 264.146,109.188 272.146,101.188 280.5,93.5C 285.521,97.8544 290.188,102.521 294.5,107.5 Z"/></g>
<g><path style="opacity:1" fill="#f7d139" d="M 329.5,93.5 C 359.167,122.5 388.5,151.833 417.5,181.5C 388.167,181.5 358.833,181.5 329.5,181.5C 329.5,152.167 329.5,122.833 329.5,93.5 Z"/></g>
<g><path style="opacity:1" fill="#6f8e72" d="M 201.5,92.5 C 202.167,92.5 202.5,92.8333 202.5,93.5C 202.5,122.833 202.5,152.167 202.5,181.5C 237.833,181.5 273.167,181.5 308.5,181.5C 291.008,182.497 273.341,182.83 255.5,182.5C 237.5,182.5 219.5,182.5 201.5,182.5C 201.5,152.5 201.5,122.5 201.5,92.5 Z"/></g>
<g><path style="opacity:1" fill="#88ac7a" d="M 182.5,92.5 C 182.5,122.5 182.5,152.5 182.5,182.5C 152.5,182.5 122.5,182.5 92.5,182.5C 121.995,181.502 151.662,181.169 181.5,181.5C 181.169,151.662 181.502,121.995 182.5,92.5 Z"/></g>
<g><path style="opacity:1" fill="#f6d039" d="M 418.5,182.5 C 449.132,212.632 479.632,242.965 510,273.5C 510.494,275.134 510.66,276.801 510.5,278.5C 500.417,368.362 456.417,435.862 378.5,481C 347.264,497.975 313.93,507.809 278.5,510.5C 276.801,510.66 275.134,510.494 273.5,510C 242.965,479.632 212.632,449.132 182.5,418.5C 188.833,418.5 195.167,418.5 201.5,418.5C 202.498,389.005 202.831,359.338 202.5,329.5C 237.833,329.5 273.167,329.5 308.5,329.5C 308.5,359.167 308.5,388.833 308.5,418.5C 315.5,418.5 322.5,418.5 329.5,418.5C 329.5,388.833 329.5,359.167 329.5,329.5C 359.167,329.5 388.833,329.5 418.5,329.5C 418.5,322.5 418.5,315.5 418.5,308.5C 388.833,308.5 359.167,308.5 329.5,308.5C 329.5,273.167 329.5,237.833 329.5,202.5C 359.167,202.5 388.833,202.5 418.5,202.5C 418.5,195.833 418.5,189.167 418.5,182.5 Z"/></g>
<g><path style="opacity:1" fill="#f7d139" d="M 93.5,202.5 C 122.833,202.5 152.167,202.5 181.5,202.5C 181.5,231.833 181.5,261.167 181.5,290.5C 151.833,261.5 122.5,232.167 93.5,202.5 Z"/></g>
<g><path style="opacity:1" fill="#7d9f75" d="M 92.5,201.5 C 122.5,201.5 152.5,201.5 182.5,201.5C 182.5,237.5 182.5,273.5 182.5,309.5C 152.5,309.5 122.5,309.5 92.5,309.5C 121.995,308.502 151.662,308.169 181.5,308.5C 181.5,302.5 181.5,296.5 181.5,290.5C 181.5,261.167 181.5,231.833 181.5,202.5C 152.167,202.5 122.833,202.5 93.5,202.5C 92.8333,202.5 92.5,202.167 92.5,201.5 Z"/></g>
<g><path style="opacity:1" fill="#f7d039" d="M 308.5,202.5 C 308.5,237.833 308.5,273.167 308.5,308.5C 273.167,308.5 237.833,308.5 202.5,308.5C 202.5,273.167 202.5,237.833 202.5,202.5C 237.833,202.5 273.167,202.5 308.5,202.5 Z"/></g>
<g><path style="opacity:1" fill="#fe4781" d="M 255.5,214.5 C 255.5,241.167 255.5,267.833 255.5,294.5C 230.499,291.998 217.165,278.164 215.5,253C 218.541,229.459 231.874,216.626 255.5,214.5 Z"/></g>
<g><path style="opacity:1" fill="#c42463" d="M 255.5,214.5 C 273.055,215.198 285.555,223.531 293,239.5C 300.052,266.9 290.219,285.067 263.5,294C 260.854,294.497 258.187,294.664 255.5,294.5C 255.5,267.833 255.5,241.167 255.5,214.5 Z"/></g>
<g><path style="opacity:1" fill="#1c1c1a" d="M 354.5,217.5 C 355.552,217.351 356.552,217.517 357.5,218C 365.333,225.833 373.167,233.667 381,241.5C 389.014,233.319 397.181,225.319 405.5,217.5C 410.167,221.833 414.833,226.167 419.5,230.5C 411.5,238.833 403.5,247.167 395.5,255.5C 403.5,263.833 411.5,272.167 419.5,280.5C 415.138,286.046 410.138,290.546 404.5,294C 396.652,285.985 388.652,278.152 380.5,270.5C 372.181,278.319 364.014,286.319 356,294.5C 351.667,290.167 347.333,285.833 343,281.5C 342.333,280.833 342.333,280.167 343,279.5C 351.015,271.652 358.848,263.652 366.5,255.5C 357.971,247.805 349.971,239.638 342.5,231C 346.324,226.343 350.324,221.843 354.5,217.5 Z"/></g>
<g><path style="opacity:1" fill="#f7d139" d="M 93.5,329.5 C 122.833,329.5 152.167,329.5 181.5,329.5C 181.5,358.833 181.5,388.167 181.5,417.5C 151.833,388.5 122.5,359.167 93.5,329.5 Z"/></g>
<g><path style="opacity:1" fill="#849e6d" d="M 92.5,328.5 C 122.5,328.5 152.5,328.5 182.5,328.5C 182.5,358.5 182.5,388.5 182.5,418.5C 181.833,418.5 181.5,418.167 181.5,417.5C 181.5,388.167 181.5,358.833 181.5,329.5C 152.167,329.5 122.833,329.5 93.5,329.5C 92.8333,329.5 92.5,329.167 92.5,328.5 Z"/></g>
<g><path style="opacity:1" fill="#6f8e71" d="M 255.5,328.5 C 273.341,328.17 291.008,328.503 308.5,329.5C 273.167,329.5 237.833,329.5 202.5,329.5C 202.831,359.338 202.498,389.005 201.5,418.5C 201.5,388.5 201.5,358.5 201.5,328.5C 219.5,328.5 237.5,328.5 255.5,328.5 Z"/></g>
</svg>
